<?xml version="1.0" encoding="utf-8"?>
<!-- Generator: Adobe Illustrator 17.1.0, SVG Export Plug-In . SVG Version: 6.00 Build 0)  -->
<!DOCTYPE svg PUBLIC "-//W3C//DTD SVG 1.1//EN" "http://www.w3.org/Graphics/SVG/1.1/DTD/svg11.dtd">
<svg version="1.1" id="Layer_1" xmlns="http://www.w3.org/2000/svg" xmlns:xlink="http://www.w3.org/1999/xlink" x="0px" y="0px"
	 viewBox="0 -1.4 1201.4 1201.4" enable-background="new 0 -1.4 1201.4 1201.4" xml:space="preserve">
<g id="XMLID_17_">
	<g id="XMLID_18_">
		<g>
			<g id="XMLID_225_">
				<g id="XMLID_233_">
					<path id="XMLID_234_" fill="#FFFFFF" d="M600,1200V968c248,0,436-244,344-504c-36-96-112-172-208-208c-260-92-504,96-504,344
						l0,0H0C0,208,380-100,792,28c180,56,324,200,380,380C1300,820,992,1200,600,1200z"/>
				</g>
				<polygon id="XMLID_232_" fill="#FFFFFF" points="600,968 368,968 368,736 368,736 600,736 600,736 				"/>
				<polygon id="XMLID_228_" fill="#FFFFFF" points="368,1148 192,1148 192,1148 192,968 368,968 				"/>
				<polygon id="XMLID_226_" fill="#FFFFFF" points="192,968 40,968 40,968 40,820 40,820 192,820 192,820 				"/>
			</g>
		</g>
	</g>
</g>
</svg>
